<svg xmlns="http://www.w3.org/2000/svg" xmlns:xlink="http://www.w3.org/1999/xlink" width="1600" height="819" viewBox="0 0 1600 819"><defs><clipPath id="a"><rect width="1600" height="819" transform="translate(0 3249)" fill="#0a2e58"/></clipPath></defs><g transform="translate(0 -3249)" opacity="0.096" clip-path="url(#a)" style="mix-blend-mode:luminosity;isolation:isolate"><path d="M405.833,3223.021s58.333,152.667-184.193,276.453-310.234,112.688-349.1,236.9" fill="none" stroke="#19e9ca" stroke-width="4"/><path d="M405.833,3223.021s58.333,152.667-184.193,276.453-310.234,112.688-349.1,236.9" transform="translate(597.571 -26.213) rotate(11)" fill="none" stroke="#19e9ca" stroke-width="4"/><path d="M405.833,3223.021s58.333,152.667-184.193,276.453,21.995,235.432-16.875,359.641-366.75,197.87-373.8-32.917" transform="translate(112)" fill="none" stroke="#19e9ca" stroke-width="4"/><path d="M66.7,3658.5c52.156-36.484,110.781,2.385,156.589,123.255S44.307,3978.927,33.12,3854.839,14.542,3694.984,66.7,3658.5Z" transform="translate(15 -13)" fill="none" stroke="#19e9ca" stroke-width="4"/><path d="M44.767,3651.569c24.68-17.264,52.421,1.129,74.1,58.323s-84.692,93.3-89.985,34.583S20.087,3668.833,44.767,3651.569Z" transform="translate(68.831 58.875)" fill="none" stroke="#19e9ca" stroke-width="4"/><g transform="translate(1065.516 3345.271)"><path d="M-121.31,3736.37S-179.643,3583.7,62.883,3459.917s310.234-112.688,349.1-236.9" transform="translate(239.463 -2983.179)" fill="none" stroke="#19e9ca" stroke-width="4"/><path d="M533.3,0S591.63,152.667,349.1,276.453,38.87,389.141,0,513.349" transform="translate(666.519 862.941) rotate(-169)" fill="none" stroke="#19e9ca" stroke-width="4"/><path d="M-162.877,3976.212s-58.333-152.667,184.193-276.453S-.679,3464.326,38.19,3340.118s366.75-197.87,373.8,32.917" transform="translate(169.031 -3223.021)" fill="none" stroke="#19e9ca" stroke-width="4"/><path d="M187.806,3905.057c-52.156,36.484-110.781-2.385-156.589-123.255s178.979-197.172,190.167-73.083S239.962,3868.572,187.806,3905.057Z" transform="translate(254.484 -3574.345)" fill="none" stroke="#19e9ca" stroke-width="4"/><path d="M102.074,3768.238c-24.68,17.264-52.421-1.129-74.1-58.323s84.692-93.3,89.985-34.583S126.754,3750.974,102.074,3768.238Z" transform="translate(308.315 -3502.47)" fill="none" stroke="#19e9ca" stroke-width="4"/></g></g></svg>