<svg xmlns="http://www.w3.org/2000/svg" width="112" height="112" viewBox="0 0 112 112">
  <g id="Group_134" data-name="Group 134" transform="translate(-216 -43)">
    <g id="Group_133" data-name="Group 133">
      <g id="Group_131" data-name="Group 131" transform="translate(-1 -42)">
        <g id="Rectangle_66" data-name="Rectangle 66" transform="translate(217 85)" fill="#0a2e58" stroke="#0f3869" stroke-width="2">
          <rect width="112" height="112" rx="24" stroke="none"/>
          <rect x="1" y="1" width="110" height="110" rx="23" fill="none"/>
        </g>
        <path id="Path_96" data-name="Path 96" d="M296.562,420.945a35.961,35.961,0,0,0,13.159-24H293.543a20.066,20.066,0,0,1-11.6,14.313V396.945h-16v48h16V430.632a20.064,20.064,0,0,1,11.6,14.314h16.178a35.96,35.96,0,0,0-13.159-24" transform="translate(-24.638 -279.945)" fill="#fff"/>
        <path id="Path_97" data-name="Path 97" d="M329.33,428.945a20.038,20.038,0,0,0-19.6,16H293.556a36,36,0,0,1,35.774-32Z" transform="translate(-24.638 -279.945)" fill="#19e9ca"/>
      </g>
    </g>
  </g>
</svg>
