<svg xmlns="http://www.w3.org/2000/svg" width="114.3" height="92.367" viewBox="0 0 114.3 92.367"><path d="M14.21-61.03,30.238-48.377Q18.85-36.567,15.054-26.234a60.145,60.145,0,0,0-3.8,20.878L1.136-12.527H31.925V31.337H-11.518V.548A90.019,90.019,0,0,1-5.824-31.717Q-.13-46.69,14.21-61.03Zm70.857,0,16.027,12.653Q89.707-36.567,85.911-26.234a60.145,60.145,0,0,0-3.8,20.878l-10.122-7.17h30.789V31.337H59.34V.548a90.019,90.019,0,0,1,5.694-32.265Q70.728-46.69,85.068-61.03Z" transform="translate(11.518 61.03)" fill="#0a2e58"/></svg>