<svg id="Group_166" data-name="Group 166" xmlns="http://www.w3.org/2000/svg" width="125.437" height="165.074" viewBox="0 0 125.437 165.074">
  <g id="Group_1" data-name="Group 1" transform="translate(14.158 139.116)">
    <path id="Path_1" data-name="Path 1" d="M561.711,657.594q-6.9,0-11.152-3.994l3.428-5.048a10.972,10.972,0,0,0,8.062,3.315,5.345,5.345,0,0,0,2.6-.527,1.623,1.623,0,0,0,.942-1.469q0-.754-1.055-1.243a9.956,9.956,0,0,0-2.637-.735,27.446,27.446,0,0,1-3.409-.772,23.637,23.637,0,0,1-3.41-1.262,6.3,6.3,0,0,1-2.638-2.355,6.951,6.951,0,0,1-1.055-3.88,7.222,7.222,0,0,1,2.675-5.67,10.787,10.787,0,0,1,7.308-2.317,15.1,15.1,0,0,1,10.211,3.5L568.039,640a11.04,11.04,0,0,0-7.346-2.637q-2.713,0-2.713,1.733,0,.829,1.47,1.319a31.824,31.824,0,0,0,3.561.923,35.967,35.967,0,0,1,4.162,1.13,7.936,7.936,0,0,1,3.542,2.411,6.4,6.4,0,0,1,1.469,4.314,7.544,7.544,0,0,1-2.75,6.122q-2.751,2.28-7.723,2.279" transform="translate(-550.559 -631.636)" fill="#47536b"/>
    <path id="Path_2" data-name="Path 2" d="M615.309,664.117h-5.8v-1.808a6.085,6.085,0,0,1-2.392,1.639,8.553,8.553,0,0,1-3.259.622,6.658,6.658,0,0,1-4.313-1.582,5.37,5.37,0,0,1-1.94-4.408,5.226,5.226,0,0,1,1.883-4.446,7.025,7.025,0,0,1,4.37-1.431q3.918,0,5.651,2.147v-1.808a2.312,2.312,0,0,0-.978-1.94,4.441,4.441,0,0,0-2.714-.735,7.658,7.658,0,0,0-5.086,1.959l-2.147-4.031a12.275,12.275,0,0,1,8.251-2.826,13.291,13.291,0,0,1,3.183.358,8.761,8.761,0,0,1,2.675,1.149,5.336,5.336,0,0,1,1.921,2.26,8.109,8.109,0,0,1,.7,3.5Zm-9.042-3.353a3.65,3.65,0,0,0,3.24-1.319v-1.62a4.495,4.495,0,0,0-5.293-.735,1.865,1.865,0,0,0,0,3.126,3.7,3.7,0,0,0,2.053.547" transform="translate(-574.282 -638.611)" fill="#47536b"/>
    <path id="Path_3" data-name="Path 3" d="M650.154,664.577h-6.179l-7.158-18.2h6.1l4.144,11.528,4.106-11.528h6.141Z" transform="translate(-594.057 -639.071)" fill="#47536b"/>
    <path id="Path_4" data-name="Path 4" d="M689.209,664.569a10,10,0,0,1-7.1-2.618A9.056,9.056,0,0,1,679.3,655a9.337,9.337,0,0,1,9.644-9.531,8.785,8.785,0,0,1,6.706,2.769,10.326,10.326,0,0,1,2.6,7.365v1.319H685.291a3.7,3.7,0,0,0,1.507,2.148,5.157,5.157,0,0,0,3.051.828,7.692,7.692,0,0,0,2.373-.433,5.752,5.752,0,0,0,2.073-1.111l2.524,3.805a8.9,8.9,0,0,1-3.373,1.789,14.544,14.544,0,0,1-4.238.622m3.5-11.6a3.248,3.248,0,0,0-1.055-1.978,3.837,3.837,0,0,0-2.713-.848,3.776,3.776,0,0,0-2.637.829,3.378,3.378,0,0,0-1.092,2Z" transform="translate(-615.481 -638.611)" fill="#47536b"/>
    <path id="Path_5" data-name="Path 5" d="M729.1,664.079h-5.8v-18.2h5.8V648.1a7.708,7.708,0,0,1,2.524-1.921,7.017,7.017,0,0,1,3.164-.791v5.576a4.942,4.942,0,0,0-1.431-.151,7.032,7.032,0,0,0-2.468.471,3.814,3.814,0,0,0-1.789,1.187Z" transform="translate(-637.671 -638.573)" fill="#47536b"/>
  </g>
  <g id="Group_2" data-name="Group 2">
    <path id="Path_6" data-name="Path 6" d="M522.257,371.82s-7.807,88.486,62.46,104.1c70.268-15.615,62.461-104.1,62.461-104.1-41.639,0-62.461-20.82-62.461-20.82s-20.819,20.82-62.46,20.82" transform="translate(-521.999 -351)" fill="#2770f5"/>
    <path id="Path_8" data-name="Path 8" d="M627.95,431.335l8.395-25.183a1.025,1.025,0,0,0-1.7-1.049l-18.962,18.963L605.553,434.2a1.025,1.025,0,0,0,.156,1.577l19.339,12.893a1.024,1.024,0,0,1,.4,1.177l-8.395,25.183a1.025,1.025,0,0,0,1.7,1.048l18.963-18.962,10.132-10.133a1.025,1.025,0,0,0-.156-1.577l-19.34-12.893a1.026,1.026,0,0,1-.4-1.177" transform="translate(-563.983 -378.129)" fill="#fff"/>
  </g>
</svg>
