<svg xmlns="http://www.w3.org/2000/svg" width="126" height="165" viewBox="0 0 126 165"><g transform="translate(183 -3386)"><g transform="translate(-168.841 3525.02)"><path d="M561.711,657.594q-6.9,0-11.152-3.994l3.428-5.048a10.972,10.972,0,0,0,8.062,3.315,5.345,5.345,0,0,0,2.6-.527,1.623,1.623,0,0,0,.942-1.469q0-.754-1.055-1.243a9.959,9.959,0,0,0-2.637-.735,27.449,27.449,0,0,1-3.409-.772,23.641,23.641,0,0,1-3.41-1.262,6.3,6.3,0,0,1-2.638-2.355,6.951,6.951,0,0,1-1.055-3.88,7.222,7.222,0,0,1,2.675-5.67,10.787,10.787,0,0,1,7.308-2.317,15.1,15.1,0,0,1,10.211,3.5L568.039,640a11.04,11.04,0,0,0-7.346-2.637q-2.713,0-2.713,1.733,0,.829,1.47,1.319a31.81,31.81,0,0,0,3.561.923,35.971,35.971,0,0,1,4.162,1.13,7.936,7.936,0,0,1,3.542,2.411,6.4,6.4,0,0,1,1.469,4.314,7.544,7.544,0,0,1-2.75,6.122q-2.751,2.28-7.723,2.279" transform="translate(-550.559 -631.62)" fill="#fff"/><path d="M615.309,664.117h-5.8v-1.808a6.085,6.085,0,0,1-2.392,1.639,8.553,8.553,0,0,1-3.259.622,6.658,6.658,0,0,1-4.313-1.582,5.37,5.37,0,0,1-1.94-4.408,5.226,5.226,0,0,1,1.883-4.446,7.025,7.025,0,0,1,4.37-1.431q3.918,0,5.651,2.147v-1.808a2.312,2.312,0,0,0-.978-1.94,4.44,4.44,0,0,0-2.714-.735,7.658,7.658,0,0,0-5.086,1.959l-2.147-4.031a12.275,12.275,0,0,1,8.251-2.826,13.293,13.293,0,0,1,3.183.358,8.76,8.76,0,0,1,2.675,1.149,5.336,5.336,0,0,1,1.921,2.26,8.109,8.109,0,0,1,.7,3.5Zm-9.042-3.353a3.65,3.65,0,0,0,3.24-1.319v-1.62a4.5,4.5,0,0,0-5.293-.735,1.865,1.865,0,0,0,0,3.126,3.7,3.7,0,0,0,2.053.547" transform="translate(-574.117 -638.595)" fill="#fff"/><path d="M650.154,664.577h-6.179l-7.158-18.2h6.1l4.144,11.528,4.106-11.528h6.141Z" transform="translate(-593.743 -639.055)" fill="#fff"/><path d="M689.209,664.569a10,10,0,0,1-7.1-2.618A9.056,9.056,0,0,1,679.3,655a9.337,9.337,0,0,1,9.644-9.531,8.785,8.785,0,0,1,6.706,2.769,10.326,10.326,0,0,1,2.6,7.365v1.319H685.291a3.7,3.7,0,0,0,1.507,2.148,5.158,5.158,0,0,0,3.051.828,7.693,7.693,0,0,0,2.373-.433,5.752,5.752,0,0,0,2.073-1.111l2.524,3.8a8.9,8.9,0,0,1-3.373,1.789,14.543,14.543,0,0,1-4.238.622m3.5-11.6a3.248,3.248,0,0,0-1.055-1.978,3.837,3.837,0,0,0-2.713-.848,3.776,3.776,0,0,0-2.637.829,3.378,3.378,0,0,0-1.092,2Z" transform="translate(-614.918 -638.595)" fill="#fff"/><path d="M729.1,664.079h-5.8v-18.2h5.8V648.1a7.708,7.708,0,0,1,2.524-1.921,7.016,7.016,0,0,1,3.164-.791v5.576a4.942,4.942,0,0,0-1.431-.151,7.032,7.032,0,0,0-2.468.471,3.813,3.813,0,0,0-1.789,1.187Z" transform="translate(-637.108 -638.557)" fill="#fff"/></g><path d="M522.258,371.807S514.416,460.236,585,475.84c70.583-15.6,62.741-104.033,62.741-104.033C605.914,371.807,585,351,585,351s-20.912,20.807-62.74,20.807" transform="translate(-704.999 3035)" fill="#2770f5"/><path d="M627.95,431.335l8.4-25.183a1.025,1.025,0,0,0-1.7-1.049l-18.962,18.963L605.553,434.2a1.025,1.025,0,0,0,.156,1.577l19.339,12.893a1.024,1.024,0,0,1,.4,1.177l-8.4,25.183a1.025,1.025,0,0,0,1.7,1.048l18.963-18.962,10.132-10.133a1.025,1.025,0,0,0-.156-1.577l-19.34-12.893a1.026,1.026,0,0,1-.4-1.177" transform="translate(-746.701 3007.848)" fill="#fff"/></g></svg>