<svg width="0" height="0" class="hidden">
  <symbol xmlns="http://www.w3.org/2000/svg" viewBox="0 0 32 20.061" id="behance">
    <path d="M12.889 8.989a4.216 4.216 0 002.689-4.111C15.578.956 12.656 0 9.284 0H0v19.689h9.544c3.578 0 6.939-1.717 6.939-5.717a4.744 4.744 0 00-3.594-4.983zM4.328 3.361h4.061c1.561 0 2.967.439 2.967 2.25 0 1.672-1.094 2.344-2.639 2.344H4.328V3.361zm4.628 12.983H4.328v-5.422h4.716c1.906 0 3.111.794 3.111 2.811.001 1.989-1.438 2.611-3.199 2.611zM28.872 2.972h-7.983V1.033h7.983zM32 12.767c0-4.217-2.467-7.733-6.939-7.733-4.344 0-7.294 3.267-7.294 7.544 0 4.439 2.794 7.483 7.294 7.483a6.356 6.356 0 006.672-4.794h-3.455a3.244 3.244 0 01-3.094 1.861c-2.294 0-3.5-1.344-3.5-3.628h10.283c.016-.233.033-.483.033-.733zm-10.311-1.734a3.06 3.06 0 013.25-3.044c1.967 0 2.956 1.156 3.122 3.044z" fill="#fff"></path>
  </symbol>
  <symbol xmlns="http://www.w3.org/2000/svg" viewBox="0 0 32 32" id="dribbble">
    <path d="M16 0a16 16 0 1016 16A16.018 16.018 0 0016 0zm10.579 7.378a13.6 13.6 0 013.086 8.513 31.937 31.937 0 00-9.516-.44c-.371-.906-.721-1.7-1.2-2.685a18.2 18.2 0 007.631-5.389zM25.059 5.8c-.246.35-2.3 3.115-7.163 4.937a72.949 72.949 0 00-5.1-8A13.631 13.631 0 0125.059 5.8zM10.19 3.653a87.2 87.2 0 015.067 7.9 50.976 50.976 0 01-12.634 1.665 13.717 13.717 0 017.567-9.565zM2.334 16.021c0-.14 0-.279.007-.418a50.413 50.413 0 0014.046-1.945c.391.766.765 1.543 1.108 2.319a21.169 21.169 0 00-11.647 9.181 13.612 13.612 0 01-3.514-9.137zM7.611 26.8c1.428-2.918 5.3-6.685 10.812-8.565A56.808 56.808 0 0121.338 28.6a13.639 13.639 0 01-13.727-1.8zm16.025.548a58.986 58.986 0 00-2.655-9.744 20.059 20.059 0 018.513.584 13.69 13.69 0 01-5.858 9.162z" fill="#fff"></path>
  </symbol>
  <symbol xmlns="http://www.w3.org/2000/svg" viewBox="0 0 32 31.993" id="instagram">
    <path d="M16.004 7.794a8.2 8.2 0 108.2 8.2 8.19 8.19 0 00-8.2-8.2zm0 13.535a5.333 5.333 0 115.333-5.333 5.342 5.342 0 01-5.333 5.333zM26.455 7.458a1.913 1.913 0 11-1.913-1.913 1.909 1.909 0 011.913 1.913zM31.888 9.4a9.468 9.468 0 00-2.584-6.7 9.53 9.53 0 00-6.7-2.584c-2.641-.15-10.558-.15-13.2 0a9.517 9.517 0 00-6.7 2.577 9.5 9.5 0 00-2.584 6.7c-.15 2.641-.15 10.558 0 13.2a9.468 9.468 0 002.584 6.7 9.542 9.542 0 006.7 2.584c2.641.15 10.558.15 13.2 0a9.468 9.468 0 006.7-2.584 9.53 9.53 0 002.584-6.7c.149-2.642.149-10.552 0-13.193zm-3.413 16.027a5.4 5.4 0 01-3.041 3.041c-2.106.835-7.1.642-9.43.642s-7.332.186-9.43-.642a5.4 5.4 0 01-3.041-3.041c-.835-2.106-.642-7.1-.642-9.43s-.186-7.332.642-9.43a5.4 5.4 0 013.042-3.042c2.106-.835 7.1-.642 9.43-.642s7.332-.186 9.43.642a5.4 5.4 0 013.04 3.041c.835 2.106.642 7.1.642 9.43s.193 7.332-.642 9.431z" fill="#fff"></path>
  </symbol>
  <symbol xmlns="http://www.w3.org/2000/svg" viewBox="0 0 30.001 30" id="linkedin-in">
    <path d="M6.715 30H.5V9.971h6.22zM3.6 7.238a3.619 3.619 0 113.6-3.636 3.632 3.632 0 01-3.6 3.636zM29.994 30h-6.206v-9.75c0-2.324-.047-5.3-3.234-5.3-3.234 0-3.729 2.525-3.729 5.136V30h-6.214V9.971h5.965v2.732h.087a6.536 6.536 0 015.885-3.234c6.295 0 7.452 4.145 7.452 9.529v11z" fill="#fff"></path>
  </symbol>
  <symbol xmlns="http://www.w3.org/2000/svg" viewBox="0 0 40 30" id="envelope">
    <path d="M39.242 9.906a.47.47 0 01.758.367V26.25A3.751 3.751 0 0136.25 30H3.75A3.751 3.751 0 010 26.25V10.281a.467.467 0 01.758-.367C2.508 11.273 4.828 13 12.8 18.789c1.648 1.2 4.43 3.734 7.2 3.719 2.789.023 5.625-2.562 7.211-3.719C35.18 13 37.492 11.266 39.242 9.906zM20 20c1.813.031 4.422-2.281 5.734-3.234C36.101 9.243 36.89 8.586 39.281 6.711A1.87 1.87 0 0040 5.234V3.75A3.751 3.751 0 0036.25 0H3.75A3.751 3.751 0 000 3.75v1.484a1.881 1.881 0 00.719 1.477c2.391 1.867 3.18 2.531 13.547 10.055 1.312.953 3.922 3.265 5.734 3.234z" fill="#fff"></path>
  </symbol>
</svg>