<svg xmlns="http://www.w3.org/2000/svg" xmlns:xlink="http://www.w3.org/1999/xlink" width="24" height="64" viewBox="0 0 24 64">
  <defs>
    <clipPath id="clip-path">
      <rect id="Rectangle_92" data-name="Rectangle 92" width="24" height="24" transform="translate(816 80)" fill="#fff" stroke="#707070" stroke-width="1"/>
    </clipPath>
    <clipPath id="clip-path-2">
      <rect id="Rectangle_93" data-name="Rectangle 93" width="24" height="24" transform="translate(816 120)" fill="#fff" stroke="#707070" stroke-width="1"/>
    </clipPath>
  </defs>
  <g id="Group_162" data-name="Group 162" transform="translate(-816 -80)">
    <g id="moon" transform="translate(1656 224) rotate(180)" clip-path="url(#clip-path)">
      <path id="Path_116" data-name="Path 116" d="M7.574,4.137A9,9,0,0,1,9.148,22a8.968,8.968,0,0,0,1.426-4.863A9.008,9.008,0,0,0,0,8.274,8.972,8.972,0,0,1,7.574,4.137Z" transform="translate(836.574 105) rotate(180)" fill="#fff"/>
    </g>
    <g id="Mask_Group_5" data-name="Mask Group 5" transform="translate(1656 224) rotate(180)" clip-path="url(#clip-path-2)">
      <g id="Group_161" data-name="Group 161" transform="translate(1655.86 223.93) rotate(180)">
        <circle id="Ellipse_36" data-name="Ellipse 36" cx="6" cy="6" r="6" transform="translate(822 86)" fill="#ffc426"/>
        <g id="Group_160" data-name="Group 160" transform="translate(2.555 2.875)">
          <line id="Line_15" data-name="Line 15" y1="2.214" transform="translate(825.375 78.195)" fill="none" stroke="#ffc426" stroke-linecap="round" stroke-width="2"/>
          <line id="Line_16" data-name="Line 16" y1="2.214" transform="translate(825.375 97.842)" fill="none" stroke="#ffc426" stroke-linecap="round" stroke-width="2"/>
          <line id="Line_17" data-name="Line 17" y1="2.214" transform="translate(830.84 79.66) rotate(30)" fill="none" stroke="#ffc426" stroke-linecap="round" stroke-width="2"/>
          <line id="Line_18" data-name="Line 18" y1="2.214" transform="translate(821.017 96.674) rotate(30)" fill="none" stroke="#ffc426" stroke-linecap="round" stroke-width="2"/>
          <line id="Line_19" data-name="Line 19" y1="2.214" transform="translate(834.841 83.66) rotate(60)" fill="none" stroke="#ffc426" stroke-linecap="round" stroke-width="2"/>
          <line id="Line_20" data-name="Line 20" y1="2.214" transform="translate(817.827 93.483) rotate(60)" fill="none" stroke="#ffc426" stroke-linecap="round" stroke-width="2"/>
          <line id="Line_21" data-name="Line 21" y1="2.214" transform="translate(836.305 89.125) rotate(90)" fill="none" stroke="#ffc426" stroke-linecap="round" stroke-width="2"/>
          <line id="Line_22" data-name="Line 22" y1="2.214" transform="translate(816.659 89.125) rotate(90)" fill="none" stroke="#ffc426" stroke-linecap="round" stroke-width="2"/>
          <line id="Line_23" data-name="Line 23" y2="2.214" transform="translate(821.017 81.577) rotate(150)" fill="none" stroke="#ffc426" stroke-linecap="round" stroke-width="2"/>
          <line id="Line_24" data-name="Line 24" y2="2.214" transform="translate(830.84 98.591) rotate(150)" fill="none" stroke="#ffc426" stroke-linecap="round" stroke-width="2"/>
          <line id="Line_25" data-name="Line 25" y2="2.214" transform="translate(817.827 84.767) rotate(120)" fill="none" stroke="#ffc426" stroke-linecap="round" stroke-width="2"/>
          <line id="Line_26" data-name="Line 26" y2="2.214" transform="translate(834.841 94.59) rotate(120)" fill="none" stroke="#ffc426" stroke-linecap="round" stroke-width="2"/>
        </g>
      </g>
    </g>
  </g>
</svg>
